<svg xmlns="http://www.w3.org/2000/svg" width="800" height="500" viewBox="0 0 800 500">
  <defs>
    <linearGradient id="bg" x1="0%" y1="0%" x2="100%" y2="100%">
      <stop offset="0%" style="stop-color:#0f172a"/>
      <stop offset="100%" style="stop-color:#1a1a2e"/>
    </linearGradient>
  </defs>
  
  <!-- Background -->
  <rect width="800" height="500" fill="url(#bg)"/>
  
  <!-- Header -->
  <rect x="20" y="20" width="760" height="60" rx="10" fill="#1e293b"/>
  <text x="40" y="58" font-family="Segoe UI, sans-serif" font-size="24" fill="#f8fafc">🎮 Foundry Local Learning Adventure</text>
  
  <!-- Level Content -->
  <rect x="20" y="100" width="760" height="380" rx="10" fill="#1e293b"/>
  
  <!-- Task Area with Response -->
  <rect x="40" y="120" width="720" height="200" rx="8" fill="#0f172a"/>
  <text x="60" y="150" font-family="Segoe UI, sans-serif" font-size="14" fill="#f8fafc" font-weight="600">💬 Chat with the AI Model</text>
  
  <!-- User Input -->
  <rect x="60" y="170" width="680" height="35" rx="6" fill="#1e293b"/>
  <text x="80" y="192" font-family="Segoe UI, sans-serif" font-size="12" fill="#f8fafc">Hello! What is Foundry Local?</text>
  
  <!-- AI Response -->
  <rect x="60" y="220" width="680" height="80" rx="6" fill="#1e293b" stroke="#6366f1" stroke-width="2"/>
  <text x="80" y="245" font-family="Segoe UI, sans-serif" font-size="12" fill="#818cf8" font-weight="600">🤖 AI Response:</text>
  <text x="80" y="265" font-family="Consolas, monospace" font-size="11" fill="#94a3b8">Hello! I'm an AI assistant running locally on your machine</text>
  <text x="80" y="280" font-family="Consolas, monospace" font-size="11" fill="#94a3b8">through Foundry Local. I can help you learn, answer</text>
  <text x="80" y="295" font-family="Consolas, monospace" font-size="11" fill="#94a3b8">questions, and assist with various tasks!</text>
  
  <!-- Progress -->
  <text x="60" y="345" font-family="Segoe UI, sans-serif" font-size="12" fill="#94a3b8">Prompts sent: <tspan fill="#10b981" font-weight="600">1</tspan> / 2</text>
  
  <!-- Mentor Message -->
  <rect x="60" y="370" width="680" height="40" rx="6" fill="rgba(16, 185, 129, 0.1)" stroke="#10b981" stroke-width="1"/>
  <text x="80" y="395" font-family="Segoe UI, sans-serif" font-size="12" fill="#10b981">🧙 Sage: Great! That's 1 prompt. Try 1 more to complete this level.</text>
  
  <!-- Mentor Panel -->
  <rect x="580" y="420" width="180" height="60" rx="8" fill="#1e293b"/>
  <rect x="580" y="420" width="180" height="25" rx="8" fill="#7c3aed"/>
  <text x="600" y="438" font-family="Segoe UI, sans-serif" font-size="12" fill="white">🧙 Sage ▼</text>
  <text x="600" y="465" font-family="Segoe UI, sans-serif" font-size="10" fill="#94a3b8">Ask me anything...</text>
</svg>
