<svg xmlns="http://www.w3.org/2000/svg" width="800" height="500" viewBox="0 0 800 500">
  <defs>
    <linearGradient id="bg" x1="0%" y1="0%" x2="100%" y2="100%">
      <stop offset="0%" style="stop-color:#0f172a"/>
      <stop offset="100%" style="stop-color:#1a1a2e"/>
    </linearGradient>
  </defs>
  
  <!-- Background -->
  <rect width="800" height="500" fill="url(#bg)"/>
  
  <!-- Dimmed Background -->
  <rect width="800" height="500" fill="black" opacity="0.7"/>
  
  <!-- Modal -->
  <rect x="200" y="100" width="400" height="300" rx="12" fill="#1e293b"/>
  
  <!-- Modal Header -->
  <rect x="200" y="100" width="400" height="50" rx="12" fill="#0f172a"/>
  <text x="230" y="132" font-family="Segoe UI, sans-serif" font-size="18" fill="#f8fafc" font-weight="600">📊 Your Progress</text>
  <text x="570" y="132" font-family="Segoe UI, sans-serif" font-size="20" fill="#94a3b8">×</text>
  
  <!-- Progress Stats -->
  <g transform="translate(220, 170)">
    <rect width="360" height="35" fill="transparent"/>
    <text x="0" y="20" font-family="Segoe UI, sans-serif" font-size="14" fill="#94a3b8">Player Name</text>
    <text x="360" y="20" font-family="Segoe UI, sans-serif" font-size="14" fill="#818cf8" text-anchor="end" font-weight="600">Explorer</text>
    <line x1="0" y1="35" x2="360" y2="35" stroke="#334155"/>
  </g>
  
  <g transform="translate(220, 210)">
    <rect width="360" height="35" fill="transparent"/>
    <text x="0" y="20" font-family="Segoe UI, sans-serif" font-size="14" fill="#94a3b8">Total Points</text>
    <text x="360" y="20" font-family="Segoe UI, sans-serif" font-size="14" fill="#818cf8" text-anchor="end" font-weight="600">250</text>
    <line x1="0" y1="35" x2="360" y2="35" stroke="#334155"/>
  </g>
  
  <g transform="translate(220, 250)">
    <rect width="360" height="35" fill="transparent"/>
    <text x="0" y="20" font-family="Segoe UI, sans-serif" font-size="14" fill="#94a3b8">Levels Completed</text>
    <text x="360" y="20" font-family="Segoe UI, sans-serif" font-size="14" fill="#818cf8" text-anchor="end" font-weight="600">2 / 5</text>
    <line x1="0" y1="35" x2="360" y2="35" stroke="#334155"/>
  </g>
  
  <g transform="translate(220, 290)">
    <rect width="360" height="35" fill="transparent"/>
    <text x="0" y="20" font-family="Segoe UI, sans-serif" font-size="14" fill="#94a3b8">Badges Earned</text>
    <text x="360" y="20" font-family="Segoe UI, sans-serif" font-size="14" fill="#818cf8" text-anchor="end" font-weight="600">2 / 5</text>
    <line x1="0" y1="35" x2="360" y2="35" stroke="#334155"/>
  </g>
  
  <g transform="translate(220, 330)">
    <rect width="360" height="35" fill="transparent"/>
    <text x="0" y="20" font-family="Segoe UI, sans-serif" font-size="14" fill="#94a3b8">Completion</text>
    <text x="360" y="20" font-family="Segoe UI, sans-serif" font-size="14" fill="#10b981" text-anchor="end" font-weight="600">40%</text>
  </g>
</svg>
